<svg id="Capa_1" enable-background="new 0 0 512 512" height="512" viewBox="0 0 512 512" width="512" xmlns="http://www.w3.org/2000/svg"><g id="XMLID_1750_"><g id="XMLID_831_"><path id="XMLID_834_" d="m354.404 344.404h-30.689l-15.942-7.095v-19.357c22.321-12.297 39.832-32.285 48.944-56.368h13.676c32.567 0 59.063-26.496 59.063-59.063 0-21.029-11.056-39.515-27.652-49.982v-6.735c.001-80.397-65.407-145.804-145.804-145.804s-145.805 65.407-145.805 145.805v6.73c-16.6 10.467-27.659 28.954-27.659 49.986 0 32.567 26.496 59.063 59.063 59.063h13.683c9.112 24.083 26.623 44.071 48.944 56.368v19.277l-16.121 7.174h-30.51c-86.898.001-157.595 70.699-157.595 157.597 0 5.522 4.477 10 10 10h201c5.523 0 10-4.478 10-10s-4.477-10-10-10h-190.641c4.986-69.108 61.239-124.232 130.816-127.444-.026.084-.062.164-.086.248-.811 2.85-.316 5.912 1.35 8.362l47.305 69.544c1.676 2.464 4.363 4.052 7.329 4.332.314.029.628.044.941.044 2.639 0 5.186-1.045 7.07-2.929l40.827-40.827 40.826 40.827c1.884 1.884 4.432 2.929 7.07 2.929.312 0 .626-.015.94-.044 2.967-.28 5.654-1.868 7.33-4.332l47.306-69.544c1.666-2.449 2.16-5.513 1.35-8.362-.025-.087-.061-.168-.088-.254 69.66 3.125 126.006 58.284 130.996 127.451h-190.641c-5.522 0-10 4.478-10 10s4.478 10 10 10h201c5.522 0 10-4.478 10-10 0-86.899-70.697-157.597-157.596-157.597zm-10.967-188.787c-20.545-2.821-39.825-11.007-56.206-23.967-3.591-2.842-8.656-2.88-12.291-.091-21.482 16.482-47.18 25.194-74.314 25.194-10.89 0-21.628-1.451-32.029-4.27v-5.084c0-48.192 39.207-87.399 87.399-87.399s87.4 39.207 87.4 87.399c.001 0 .02 7.95.041 8.218zm26.957 85.968h-6.757v-78.127h6.757c21.54 0 39.063 17.523 39.063 39.064 0 21.539-17.523 39.063-39.063 39.063zm-114.394-221.585c68.957 0 125.124 55.769 125.789 124.572-3.689-.724-7.497-1.114-11.396-1.114h-7.077c-2.082-57.401-49.419-103.458-107.32-103.458s-105.238 46.057-107.32 103.458h-7.076c-3.896 0-7.701.389-11.389 1.113.666-68.802 56.833-124.571 125.789-124.571zm-107.644 221.585h-6.756c-21.54 0-39.063-17.524-39.063-39.064s17.523-39.064 39.063-39.064h6.757v78.128zm20-17.98v-50.54c10.536 2.448 21.341 3.688 32.27 3.688 29.018 0 56.629-8.565 80.319-24.845 18.62 13.124 40.042 21.272 62.691 23.886v48.349c-.057 9.374-1.593 18.403-4.386 26.866h-47.754c-4.132-11.684-15.284-20.08-28.364-20.08h-13.387c-16.586 0-30.079 13.494-30.079 30.08s13.493 30.08 30.079 30.08h13.387c13.081 0 24.233-8.396 28.364-20.08h38.188c-15.615 24.191-42.81 40.239-73.684 40.239-48.327 0-87.644-39.316-87.644-87.643zm104.857 37.404c0 5.559-4.521 10.08-10.08 10.08h-13.387c-5.558 0-10.079-4.521-10.079-10.08s4.521-10.08 10.079-10.08h13.387c5.558 0 10.08 4.521 10.08 10.08zm-17.213 70.239c11.056 0 21.726-1.678 31.773-4.788v16.722l-31.862 31.862-31.685-31.684v-16.9c10.048 3.11 20.718 4.788 31.774 4.788zm-46.515 90.223-33.778-49.658 33.692-14.994 32.369 32.369zm92.851 0-32.283-32.283 32.369-32.369 33.693 14.994z"/><path id="XMLID_843_" d="m256 492c-2.63 0-5.21 1.069-7.07 2.93-1.86 1.86-2.93 4.44-2.93 7.07s1.069 5.21 2.93 7.069c1.86 1.86 4.44 2.931 7.07 2.931s5.21-1.07 7.069-2.931c1.861-1.859 2.931-4.439 2.931-7.069s-1.07-5.21-2.931-7.07c-1.859-1.861-4.439-2.93-7.069-2.93z"/></g></g></svg>