<?xml version="1.0"?>
<svg xmlns="http://www.w3.org/2000/svg" xmlns:xlink="http://www.w3.org/1999/xlink" xmlns:svgjs="http://svgjs.com/svgjs" version="1.1" width="512" height="512" x="0" y="0" viewBox="0 0 512 512" style="enable-background:new 0 0 512 512" xml:space="preserve" class=""><g>
<g xmlns="http://www.w3.org/2000/svg">
	<g>
		<path d="M255.999,150.323c-31.006,0-56.232,25.226-56.232,56.232c0,20.708,11.26,38.825,27.97,48.583v133.051    c0,4.199,3.404,7.604,7.604,7.604s7.604-3.405,7.604-7.604V261.242c4.192,1.001,8.559,1.546,13.053,1.546    c4.493,0,8.861-0.545,13.052-1.546v243.154c0,4.199,3.404,7.604,7.604,7.604s7.604-3.405,7.604-7.604V255.139    c16.711-9.758,27.972-27.876,27.972-48.584C312.232,175.549,287.006,150.323,255.999,150.323z M255.999,247.58    c-22.621,0-41.024-18.404-41.024-41.024s18.403-41.024,41.024-41.024s41.025,18.404,41.025,41.024S278.62,247.58,255.999,247.58z" fill="#020303" data-original="#000000" style="" class=""/>
	</g>
</g>
<g xmlns="http://www.w3.org/2000/svg">
	<g>
		<path d="M157.926,304.627c-26.201-26.19-40.632-61.021-40.632-98.076c0-37.052,14.426-71.883,40.621-98.077    c2.97-2.97,2.97-7.784,0-10.753c-2.971-2.97-7.784-2.971-10.754,0c-29.067,29.066-45.075,67.717-45.075,108.831    c0,41.119,16.013,79.77,45.089,108.832c1.484,1.483,3.43,2.225,5.375,2.225c1.947,0,3.893-0.743,5.378-2.228    C160.898,312.41,160.897,307.596,157.926,304.627z" fill="#020303" data-original="#000000" style="" class=""/>
	</g>
</g>
<g xmlns="http://www.w3.org/2000/svg">
	<g>
		<path d="M256.005,52.645c-24.897,0-49.62,6.077-71.499,17.573c-3.718,1.954-5.148,6.551-3.195,10.268    c1.954,3.717,6.55,5.148,10.268,3.194c19.706-10.355,41.983-15.827,64.426-15.827c76.479,0,138.698,62.22,138.698,138.698    c0,37.059-14.426,71.894-40.621,98.089c-2.97,2.97-2.97,7.784,0,10.753c1.485,1.484,3.432,2.227,5.378,2.227    s3.892-0.742,5.378-2.227c29.067-29.067,45.075-67.722,45.075-108.842C409.911,121.687,340.869,52.645,256.005,52.645z" fill="#020303" data-original="#000000" style="" class=""/>
	</g>
</g>
<g xmlns="http://www.w3.org/2000/svg">
	<g>
		<path d="M378.825,40.471C343.073,13.995,300.603,0,256.005,0C142.106,0,49.443,92.659,49.443,206.551    c0,55.168,21.484,107.041,60.496,146.064c1.484,1.485,3.431,2.228,5.378,2.228c1.946,0,3.891-0.742,5.376-2.226    c2.97-2.97,2.971-7.783,0.001-10.753c-36.141-36.151-56.043-84.206-56.043-135.313c0-105.506,85.842-191.343,191.354-191.343    c41.315,0,80.656,12.962,113.768,37.485c3.376,2.498,8.136,1.79,10.636-1.586C382.909,47.733,382.199,42.971,378.825,40.471z" fill="#020303" data-original="#000000" style="" class=""/>
	</g>
</g>
<g xmlns="http://www.w3.org/2000/svg">
	<g>
		<path d="M413.338,72.717c-2.724-3.197-7.523-3.583-10.72-0.86c-3.197,2.722-3.582,7.521-0.861,10.72    c29.399,34.529,45.59,78.557,45.59,123.975c0,51.115-19.907,99.165-56.053,135.3c-2.97,2.97-2.971,7.783-0.001,10.753    c1.484,1.485,3.431,2.228,5.378,2.228c1.946,0,3.891-0.742,5.377-2.226c39.019-39.007,60.509-90.878,60.509-146.055    C462.555,157.525,445.076,109.995,413.338,72.717z" fill="#020303" data-original="#000000" style="" class=""/>
	</g>
</g>
<g xmlns="http://www.w3.org/2000/svg">
	<g>
		<path d="M342.953,147.921c-19.556-28.946-52.061-46.227-86.948-46.227c-57.819,0-104.86,47.039-104.86,104.86    c0,23.961,8.3,47.392,23.372,65.979c1.502,1.853,3.697,2.815,5.911,2.815c1.682,0,3.375-0.556,4.784-1.698    c3.263-2.645,3.762-7.434,1.117-10.695c-12.881-15.886-19.975-35.917-19.975-56.401c0-49.434,40.218-89.652,89.652-89.652    c29.829,0,57.622,14.779,74.345,39.532c2.349,3.481,7.076,4.394,10.556,2.045C344.388,156.129,345.303,151.402,342.953,147.921z" fill="#020303" data-original="#000000" style="" class=""/>
	</g>
</g>
<g xmlns="http://www.w3.org/2000/svg">
	<g>
		<path d="M357.823,181.383c-1.005-4.077-5.126-6.569-9.203-5.563c-4.077,1.005-6.569,5.125-5.563,9.203    c1.726,7.002,2.601,14.247,2.601,21.531c0,20.506-7.098,40.544-19.987,56.424c-2.646,3.261-2.148,8.049,1.112,10.696    c1.409,1.144,3.104,1.7,4.787,1.7c2.213,0,4.406-0.96,5.909-2.811c15.081-18.581,23.387-42.023,23.387-66.008    C360.866,198.044,359.842,189.575,357.823,181.383z" fill="#020303" data-original="#000000" style="" class=""/>
	</g>
</g>
<g xmlns="http://www.w3.org/2000/svg">
	<g>
		<path d="M235.342,409.64c-4.2,0-7.604,3.405-7.604,7.604v87.153c0,4.199,3.404,7.604,7.604,7.604s7.604-3.405,7.604-7.604v-87.153    C242.946,413.044,239.542,409.64,235.342,409.64z" fill="#020303" data-original="#000000" style="" class=""/>
	</g>
</g>
<g xmlns="http://www.w3.org/2000/svg">
</g>
<g xmlns="http://www.w3.org/2000/svg">
</g>
<g xmlns="http://www.w3.org/2000/svg">
</g>
<g xmlns="http://www.w3.org/2000/svg">
</g>
<g xmlns="http://www.w3.org/2000/svg">
</g>
<g xmlns="http://www.w3.org/2000/svg">
</g>
<g xmlns="http://www.w3.org/2000/svg">
</g>
<g xmlns="http://www.w3.org/2000/svg">
</g>
<g xmlns="http://www.w3.org/2000/svg">
</g>
<g xmlns="http://www.w3.org/2000/svg">
</g>
<g xmlns="http://www.w3.org/2000/svg">
</g>
<g xmlns="http://www.w3.org/2000/svg">
</g>
<g xmlns="http://www.w3.org/2000/svg">
</g>
<g xmlns="http://www.w3.org/2000/svg">
</g>
<g xmlns="http://www.w3.org/2000/svg">
</g>
</g></svg>
